# xmcd
# Track frame offsets:
# 150
# 16336
# 29956
# 45021
# 63044
# 78854
# 92960
# 104916
# 117161
# 139942
# 154282
# 173058
#
# Disc length: 2523 seconds
# Revision: 0
# Processed by: cddbd v1.4PL0 Copyright (c) Steve Scherf et al.
# Submitted via: VisiTrax 2.9.5.181 - For more info visit www.synapsa.com
#
DISCID=9a09d90c
DTITLE=Lorrie Morgan and Sammy Kershaw - I Finally Found Someone
DYEAR=1900
DGENRE=
TTITLE0=I Finally Found Someone
TTITLE1=Big Time
TTITLE2=I Can't Think Of Anything But You
TTITLE3=Be My Reason
TTITLE4=29 Again
TTITLE5=He Drinks Tequilla
TTITLE6=What A Wonderful World
TTITLE7=Sad City
TTITLE8=That's Where I'll Be
TTITLE9=Sugar
TTITLE10=I Must Be Getting Older
TTITLE11=3 Seconds
EXTD=
EXTT0=
EXTT1=
EXTT2=
EXTT3=
EXTT4=
EXTT5=
EXTT6=
EXTT7=
EXTT8=
EXTT9=
EXTT10=
EXTT11=
PLAYORDER=
